<svg xmlns="http://www.w3.org/2000/svg" xmlns:xlink="http://www.w3.org/1999/xlink" contentStyleType="text/css" height="1203px" preserveAspectRatio="none" style="width:3340px;height:1203px;background:#FFFFFF;" version="1.1" viewBox="0 0 3340 1203" width="3340px" zoomAndPan="magnify"><defs/><g><!--cluster ru--><g id="cluster_ru"><path d="M1253.5,6 L1271.3711,6 A3.75,3.75 0 0 1 1273.8711,8.5 L1280.8711,28.2969 L1806.5,28.2969 A2.5,2.5 0 0 1 1809,30.7969 L1809,344.5 A2.5,2.5 0 0 1 1806.5,347 L1253.5,347 A2.5,2.5 0 0 1 1251,344.5 L1251,8.5 A2.5,2.5 0 0 1 1253.5,6 " fill="none" style="stroke:#000000;stroke-width:3;"/><line style="stroke:#000000;stroke-width:3;" x1="1251" x2="1280.8711" y1="28.2969" y2="28.2969"/><text fill="#000000" font-family="sans-serif" font-size="14" font-weight="bold" lengthAdjust="spacing" textLength="16.8711" x="1255" y="20.9951">ru</text></g><!--cluster ifmo--><g id="cluster_ifmo"><path d="M1277.5,49 L1313.5957,49 A3.75,3.75 0 0 1 1316.0957,51.5 L1323.0957,71.2969 L1782.5,71.2969 A2.5,2.5 0 0 1 1785,73.7969 L1785,320.5 A2.5,2.5 0 0 1 1782.5,323 L1277.5,323 A2.5,2.5 0 0 1 1275,320.5 L1275,51.5 A2.5,2.5 0 0 1 1277.5,49 " fill="none" style="stroke:#000000;stroke-width:3;"/><line style="stroke:#000000;stroke-width:3;" x1="1275" x2="1323.0957" y1="71.2969" y2="71.2969"/><text fill="#000000" font-family="sans-serif" font-size="14" font-weight="bold" lengthAdjust="spacing" textLength="35.0957" x="1279" y="63.9951">ifmo</text></g><!--cluster se--><g id="cluster_se"><path d="M1301.5,92 L1320.3281,92 A3.75,3.75 0 0 1 1322.8281,94.5 L1329.8281,114.2969 L1758.5,114.2969 A2.5,2.5 0 0 1 1761,116.7969 L1761,296.5 A2.5,2.5 0 0 1 1758.5,299 L1301.5,299 A2.5,2.5 0 0 1 1299,296.5 L1299,94.5 A2.5,2.5 0 0 1 1301.5,92 " fill="none" style="stroke:#000000;stroke-width:3;"/><line style="stroke:#000000;stroke-width:3;" x1="1299" x2="1329.8281" y1="114.2969" y2="114.2969"/><text fill="#000000" font-family="sans-serif" font-size="14" font-weight="bold" lengthAdjust="spacing" textLength="17.8281" x="1303" y="106.9951">se</text></g><!--cluster pokemons--><g id="cluster_pokemons"><path d="M1789.5,389 L1871.4512,389 A3.75,3.75 0 0 1 1873.9512,391.5 L1880.9512,411.2969 L2644.5,411.2969 A2.5,2.5 0 0 1 2647,413.7969 L2647,749.5 A2.5,2.5 0 0 1 2644.5,752 L1789.5,752 A2.5,2.5 0 0 1 1787,749.5 L1787,391.5 A2.5,2.5 0 0 1 1789.5,389 " fill="none" style="stroke:#000000;stroke-width:3;"/><line style="stroke:#000000;stroke-width:3;" x1="1787" x2="1880.9512" y1="411.2969" y2="411.2969"/><text fill="#000000" font-family="sans-serif" font-size="14" font-weight="bold" lengthAdjust="spacing" textLength="80.9512" x="1791" y="403.9951">pokemons</text></g><!--cluster moves--><g id="cluster_moves"><path d="M8.5,981 L60.6602,981 A3.75,3.75 0 0 1 63.1602,983.5 L70.1602,1003.2969 L3330.5,1003.2969 A2.5,2.5 0 0 1 3333,1005.7969 L3333,1193.5 A2.5,2.5 0 0 1 3330.5,1196 L8.5,1196 A2.5,2.5 0 0 1 6,1193.5 L6,983.5 A2.5,2.5 0 0 1 8.5,981 " fill="none" style="stroke:#000000;stroke-width:3;"/><line style="stroke:#000000;stroke-width:3;" x1="6" x2="70.1602" y1="1003.2969" y2="1003.2969"/><text fill="#000000" font-family="sans-serif" font-size="14" font-weight="bold" lengthAdjust="spacing" textLength="51.1602" x="10" y="995.9951">moves</text></g><!--cluster physical--><g id="cluster_physical"><path d="M32.5,1024 L98.291,1024 A3.75,3.75 0 0 1 100.791,1026.5 L107.791,1046.2969 L1105.5,1046.2969 A2.5,2.5 0 0 1 1108,1048.7969 L1108,1169.5 A2.5,2.5 0 0 1 1105.5,1172 L32.5,1172 A2.5,2.5 0 0 1 30,1169.5 L30,1026.5 A2.5,2.5 0 0 1 32.5,1024 " fill="none" style="stroke:#000000;stroke-width:3;"/><line style="stroke:#000000;stroke-width:3;" x1="30" x2="107.791" y1="1046.2969" y2="1046.2969"/><text fill="#000000" font-family="sans-serif" font-size="14" font-weight="bold" lengthAdjust="spacing" textLength="64.791" x="34" y="1038.9951">physical</text></g><!--cluster special--><g id="cluster_special"><path d="M2696.5,1024 L2752.6934,1024 A3.75,3.75 0 0 1 2755.1934,1026.5 L2762.1934,1046.2969 L3306.5,1046.2969 A2.5,2.5 0 0 1 3309,1048.7969 L3309,1169.5 A2.5,2.5 0 0 1 3306.5,1172 L2696.5,1172 A2.5,2.5 0 0 1 2694,1169.5 L2694,1026.5 A2.5,2.5 0 0 1 2696.5,1024 " fill="none" style="stroke:#000000;stroke-width:3;"/><line style="stroke:#000000;stroke-width:3;" x1="2694" x2="2762.1934" y1="1046.2969" y2="1046.2969"/><text fill="#000000" font-family="sans-serif" font-size="14" font-weight="bold" lengthAdjust="spacing" textLength="55.1934" x="2698" y="1038.9951">special</text></g><!--cluster status--><g id="cluster_status"><path d="M1134.5,1024 L1184.9648,1024 A3.75,3.75 0 0 1 1187.4648,1026.5 L1194.4648,1046.2969 L2667.5,1046.2969 A2.5,2.5 0 0 1 2670,1048.7969 L2670,1169.5 A2.5,2.5 0 0 1 2667.5,1172 L1134.5,1172 A2.5,2.5 0 0 1 1132,1169.5 L1132,1026.5 A2.5,2.5 0 0 1 1134.5,1024 " fill="none" style="stroke:#000000;stroke-width:3;"/><line style="stroke:#000000;stroke-width:3;" x1="1132" x2="1194.4648" y1="1046.2969" y2="1046.2969"/><text fill="#000000" font-family="sans-serif" font-size="14" font-weight="bold" lengthAdjust="spacing" textLength="49.4648" x="1136" y="1038.9951">status</text></g><!--class Pokemon--><g id="elem_Pokemon"><rect codeLine="3" fill="#F1F1F1" height="48" id="Pokemon" rx="2.5" ry="2.5" style="stroke:#181818;stroke-width:0.5;" width="96.8047" x="1648.5" y="127"/><ellipse cx="1663.5" cy="143" fill="#ADD1B2" rx="11" ry="11" style="stroke:#181818;stroke-width:1;"/><path d="M1666.4688,148.6406 Q1665.8906,148.9375 1665.25,149.0781 Q1664.6094,149.2344 1663.9063,149.2344 Q1661.4063,149.2344 1660.0781,147.5938 Q1658.7656,145.9375 1658.7656,142.8125 Q1658.7656,139.6875 1660.0781,138.0313 Q1661.4063,136.375 1663.9063,136.375 Q1664.6094,136.375 1665.25,136.5313 Q1665.9063,136.6875 1666.4688,136.9844 L1666.4688,139.7031 Q1665.8438,139.125 1665.25,138.8594 Q1664.6563,138.5781 1664.0313,138.5781 Q1662.6875,138.5781 1662,139.6563 Q1661.3125,140.7188 1661.3125,142.8125 Q1661.3125,144.9063 1662,145.9844 Q1662.6875,147.0469 1664.0313,147.0469 Q1664.6563,147.0469 1665.25,146.7813 Q1665.8438,146.5 1666.4688,145.9219 L1666.4688,148.6406 Z " fill="#000000"/><text fill="#000000" font-family="sans-serif" font-size="14" lengthAdjust="spacing" textLength="64.8047" x="1677.5" y="147.8467">Pokemon</text><line style="stroke:#181818;stroke-width:0.5;" x1="1649.5" x2="1744.3047" y1="159" y2="159"/><line style="stroke:#181818;stroke-width:0.5;" x1="1649.5" x2="1744.3047" y1="167" y2="167"/></g><!--class Move--><g id="elem_Move"><rect codeLine="4" fill="#F1F1F1" height="48" id="Move" rx="2.5" ry="2.5" style="stroke:#181818;stroke-width:0.5;" width="69.543" x="1498" y="127"/><ellipse cx="1513" cy="143" fill="#A9DCDF" rx="11" ry="11" style="stroke:#181818;stroke-width:1;"/><path d="M1513.1094,138.3438 L1511.9531,143.4219 L1514.2813,143.4219 L1513.1094,138.3438 Z M1511.625,136.1094 L1514.6094,136.1094 L1517.9688,148.5 L1515.5156,148.5 L1514.75,145.4375 L1511.4688,145.4375 L1510.7188,148.5 L1508.2813,148.5 L1511.625,136.1094 Z " fill="#000000"/><text fill="#000000" font-family="sans-serif" font-size="14" font-style="italic" lengthAdjust="spacing" textLength="37.543" x="1527" y="147.8467">Move</text><line style="stroke:#181818;stroke-width:0.5;" x1="1499" x2="1566.543" y1="159" y2="159"/><line style="stroke:#181818;stroke-width:0.5;" x1="1499" x2="1566.543" y1="167" y2="167"/></g><!--class SpecialMove--><g id="elem_SpecialMove"><rect codeLine="5" fill="#F1F1F1" height="48" id="SpecialMove" rx="2.5" ry="2.5" style="stroke:#181818;stroke-width:0.5;" width="119.9854" x="1625" y="235"/><ellipse cx="1640" cy="251" fill="#ADD1B2" rx="11" ry="11" style="stroke:#181818;stroke-width:1;"/><path d="M1642.9688,256.6406 Q1642.3906,256.9375 1641.75,257.0781 Q1641.1094,257.2344 1640.4063,257.2344 Q1637.9063,257.2344 1636.5781,255.5938 Q1635.2656,253.9375 1635.2656,250.8125 Q1635.2656,247.6875 1636.5781,246.0313 Q1637.9063,244.375 1640.4063,244.375 Q1641.1094,244.375 1641.75,244.5313 Q1642.4063,244.6875 1642.9688,244.9844 L1642.9688,247.7031 Q1642.3438,247.125 1641.75,246.8594 Q1641.1563,246.5781 1640.5313,246.5781 Q1639.1875,246.5781 1638.5,247.6563 Q1637.8125,248.7188 1637.8125,250.8125 Q1637.8125,252.9063 1638.5,253.9844 Q1639.1875,255.0469 1640.5313,255.0469 Q1641.1563,255.0469 1641.75,254.7813 Q1642.3438,254.5 1642.9688,253.9219 L1642.9688,256.6406 Z " fill="#000000"/><text fill="#000000" font-family="sans-serif" font-size="14" lengthAdjust="spacing" textLength="87.9854" x="1654" y="255.8467">SpecialMove</text><line style="stroke:#181818;stroke-width:0.5;" x1="1626" x2="1743.9854" y1="267" y2="267"/><line style="stroke:#181818;stroke-width:0.5;" x1="1626" x2="1743.9854" y1="275" y2="275"/></g><!--class PhysicalMove--><g id="elem_PhysicalMove"><rect codeLine="6" fill="#F1F1F1" height="48" id="PhysicalMove" rx="2.5" ry="2.5" style="stroke:#181818;stroke-width:0.5;" width="126.4932" x="1315" y="235"/><ellipse cx="1330" cy="251" fill="#ADD1B2" rx="11" ry="11" style="stroke:#181818;stroke-width:1;"/><path d="M1332.9688,256.6406 Q1332.3906,256.9375 1331.75,257.0781 Q1331.1094,257.2344 1330.4063,257.2344 Q1327.9063,257.2344 1326.5781,255.5938 Q1325.2656,253.9375 1325.2656,250.8125 Q1325.2656,247.6875 1326.5781,246.0313 Q1327.9063,244.375 1330.4063,244.375 Q1331.1094,244.375 1331.75,244.5313 Q1332.4063,244.6875 1332.9688,244.9844 L1332.9688,247.7031 Q1332.3438,247.125 1331.75,246.8594 Q1331.1563,246.5781 1330.5313,246.5781 Q1329.1875,246.5781 1328.5,247.6563 Q1327.8125,248.7188 1327.8125,250.8125 Q1327.8125,252.9063 1328.5,253.9844 Q1329.1875,255.0469 1330.5313,255.0469 Q1331.1563,255.0469 1331.75,254.7813 Q1332.3438,254.5 1332.9688,253.9219 L1332.9688,256.6406 Z " fill="#000000"/><text fill="#000000" font-family="sans-serif" font-size="14" lengthAdjust="spacing" textLength="94.4932" x="1344" y="255.8467">PhysicalMove</text><line style="stroke:#181818;stroke-width:0.5;" x1="1316" x2="1440.4932" y1="267" y2="267"/><line style="stroke:#181818;stroke-width:0.5;" x1="1316" x2="1440.4932" y1="275" y2="275"/></g><!--class StatusMove--><g id="elem_StatusMove"><rect codeLine="7" fill="#F1F1F1" height="48" id="StatusMove" rx="2.5" ry="2.5" style="stroke:#181818;stroke-width:0.5;" width="114.1543" x="1476" y="235"/><ellipse cx="1491" cy="251" fill="#ADD1B2" rx="11" ry="11" style="stroke:#181818;stroke-width:1;"/><path d="M1493.9688,256.6406 Q1493.3906,256.9375 1492.75,257.0781 Q1492.1094,257.2344 1491.4063,257.2344 Q1488.9063,257.2344 1487.5781,255.5938 Q1486.2656,253.9375 1486.2656,250.8125 Q1486.2656,247.6875 1487.5781,246.0313 Q1488.9063,244.375 1491.4063,244.375 Q1492.1094,244.375 1492.75,244.5313 Q1493.4063,244.6875 1493.9688,244.9844 L1493.9688,247.7031 Q1493.3438,247.125 1492.75,246.8594 Q1492.1563,246.5781 1491.5313,246.5781 Q1490.1875,246.5781 1489.5,247.6563 Q1488.8125,248.7188 1488.8125,250.8125 Q1488.8125,252.9063 1489.5,253.9844 Q1490.1875,255.0469 1491.5313,255.0469 Q1492.1563,255.0469 1492.75,254.7813 Q1493.3438,254.5 1493.9688,253.9219 L1493.9688,256.6406 Z " fill="#000000"/><text fill="#000000" font-family="sans-serif" font-size="14" lengthAdjust="spacing" textLength="82.1543" x="1505" y="255.8467">StatusMove</text><line style="stroke:#181818;stroke-width:0.5;" x1="1477" x2="1589.1543" y1="267" y2="267"/><line style="stroke:#181818;stroke-width:0.5;" x1="1477" x2="1589.1543" y1="275" y2="275"/></g><!--class Nuzleaf--><g id="elem_Nuzleaf"><rect codeLine="10" fill="#F1F1F1" height="64.2969" id="Nuzleaf" rx="2.5" ry="2.5" style="stroke:#181818;stroke-width:0.5;" width="249.8906" x="2075" y="548"/><ellipse cx="2169.3428" cy="564" fill="#ADD1B2" rx="11" ry="11" style="stroke:#181818;stroke-width:1;"/><path d="M2172.3115,569.6406 Q2171.7334,569.9375 2171.0928,570.0781 Q2170.4521,570.2344 2169.749,570.2344 Q2167.249,570.2344 2165.9209,568.5938 Q2164.6084,566.9375 2164.6084,563.8125 Q2164.6084,560.6875 2165.9209,559.0313 Q2167.249,557.375 2169.749,557.375 Q2170.4521,557.375 2171.0928,557.5313 Q2171.749,557.6875 2172.3115,557.9844 L2172.3115,560.7031 Q2171.6865,560.125 2171.0928,559.8594 Q2170.499,559.5781 2169.874,559.5781 Q2168.5303,559.5781 2167.8428,560.6563 Q2167.1553,561.7188 2167.1553,563.8125 Q2167.1553,565.9063 2167.8428,566.9844 Q2168.5303,568.0469 2169.874,568.0469 Q2170.499,568.0469 2171.0928,567.7813 Q2171.6865,567.5 2172.3115,566.9219 L2172.3115,569.6406 Z " fill="#000000"/><text fill="#000000" font-family="sans-serif" font-size="14" lengthAdjust="spacing" textLength="52.7051" x="2189.8428" y="568.8467">Nuzleaf</text><line style="stroke:#181818;stroke-width:0.5;" x1="2076" x2="2323.8906" y1="580" y2="580"/><line style="stroke:#181818;stroke-width:0.5;" x1="2076" x2="2323.8906" y1="588" y2="588"/><ellipse cx="2086" cy="601.6484" fill="#84BE84" rx="3" ry="3" style="stroke:#038048;stroke-width:1;"/><text fill="#000000" font-family="sans-serif" font-size="14" lengthAdjust="spacing" textLength="223.8906" x="2095" y="604.9951">Nuzleaf(name: String, level: int)</text></g><!--class Patrat--><g id="elem_Patrat"><rect codeLine="13" fill="#F1F1F1" height="64.2969" id="Patrat" rx="2.5" ry="2.5" style="stroke:#181818;stroke-width:0.5;" width="246.2402" x="2385" y="424"/><ellipse cx="2482.7026" cy="440" fill="#ADD1B2" rx="11" ry="11" style="stroke:#181818;stroke-width:1;"/><path d="M2485.6714,445.6406 Q2485.0933,445.9375 2484.4526,446.0781 Q2483.812,446.2344 2483.1089,446.2344 Q2480.6089,446.2344 2479.2808,444.5938 Q2477.9683,442.9375 2477.9683,439.8125 Q2477.9683,436.6875 2479.2808,435.0313 Q2480.6089,433.375 2483.1089,433.375 Q2483.812,433.375 2484.4526,433.5313 Q2485.1089,433.6875 2485.6714,433.9844 L2485.6714,436.7031 Q2485.0464,436.125 2484.4526,435.8594 Q2483.8589,435.5781 2483.2339,435.5781 Q2481.8901,435.5781 2481.2026,436.6563 Q2480.5151,437.7188 2480.5151,439.8125 Q2480.5151,441.9063 2481.2026,442.9844 Q2481.8901,444.0469 2483.2339,444.0469 Q2483.8589,444.0469 2484.4526,443.7813 Q2485.0464,443.5 2485.6714,442.9219 L2485.6714,445.6406 Z " fill="#000000"/><text fill="#000000" font-family="sans-serif" font-size="14" lengthAdjust="spacing" textLength="42.335" x="2503.2026" y="444.8467">Patrat</text><line style="stroke:#181818;stroke-width:0.5;" x1="2386" x2="2630.2402" y1="456" y2="456"/><line style="stroke:#181818;stroke-width:0.5;" x1="2386" x2="2630.2402" y1="464" y2="464"/><ellipse cx="2396" cy="477.6484" fill="#84BE84" rx="3" ry="3" style="stroke:#038048;stroke-width:1;"/><text fill="#000000" font-family="sans-serif" font-size="14" lengthAdjust="spacing" textLength="220.2402" x="2405" y="480.9951">Seedot(name: String, level: int)</text></g><!--class Seedot--><g id="elem_Seedot"><rect codeLine="16" fill="#F1F1F1" height="64.2969" id="Seedot" rx="2.5" ry="2.5" style="stroke:#181818;stroke-width:0.5;" width="246.2402" x="2104" y="424"/><ellipse cx="2198.3428" cy="440" fill="#ADD1B2" rx="11" ry="11" style="stroke:#181818;stroke-width:1;"/><path d="M2201.3115,445.6406 Q2200.7334,445.9375 2200.0928,446.0781 Q2199.4521,446.2344 2198.749,446.2344 Q2196.249,446.2344 2194.9209,444.5938 Q2193.6084,442.9375 2193.6084,439.8125 Q2193.6084,436.6875 2194.9209,435.0313 Q2196.249,433.375 2198.749,433.375 Q2199.4521,433.375 2200.0928,433.5313 Q2200.749,433.6875 2201.3115,433.9844 L2201.3115,436.7031 Q2200.6865,436.125 2200.0928,435.8594 Q2199.499,435.5781 2198.874,435.5781 Q2197.5303,435.5781 2196.8428,436.6563 Q2196.1553,437.7188 2196.1553,439.8125 Q2196.1553,441.9063 2196.8428,442.9844 Q2197.5303,444.0469 2198.874,444.0469 Q2199.499,444.0469 2200.0928,443.7813 Q2200.6865,443.5 2201.3115,442.9219 L2201.3115,445.6406 Z " fill="#000000"/><text fill="#000000" font-family="sans-serif" font-size="14" lengthAdjust="spacing" textLength="49.0547" x="2218.8428" y="444.8467">Seedot</text><line style="stroke:#181818;stroke-width:0.5;" x1="2105" x2="2349.2402" y1="456" y2="456"/><line style="stroke:#181818;stroke-width:0.5;" x1="2105" x2="2349.2402" y1="464" y2="464"/><ellipse cx="2115" cy="477.6484" fill="#84BE84" rx="3" ry="3" style="stroke:#038048;stroke-width:1;"/><text fill="#000000" font-family="sans-serif" font-size="14" lengthAdjust="spacing" textLength="220.2402" x="2124" y="480.9951">Seedot(name: String, level: int)</text></g><!--class Shiftry--><g id="elem_Shiftry"><rect codeLine="19" fill="#F1F1F1" height="64.2969" id="Shiftry" rx="2.5" ry="2.5" style="stroke:#181818;stroke-width:0.5;" width="243.2939" x="2004.5" y="672"/><ellipse cx="2098.8428" cy="688" fill="#ADD1B2" rx="11" ry="11" style="stroke:#181818;stroke-width:1;"/><path d="M2101.8115,693.6406 Q2101.2334,693.9375 2100.5928,694.0781 Q2099.9521,694.2344 2099.249,694.2344 Q2096.749,694.2344 2095.4209,692.5938 Q2094.1084,690.9375 2094.1084,687.8125 Q2094.1084,684.6875 2095.4209,683.0313 Q2096.749,681.375 2099.249,681.375 Q2099.9521,681.375 2100.5928,681.5313 Q2101.249,681.6875 2101.8115,681.9844 L2101.8115,684.7031 Q2101.1865,684.125 2100.5928,683.8594 Q2099.999,683.5781 2099.374,683.5781 Q2098.0303,683.5781 2097.3428,684.6563 Q2096.6553,685.7188 2096.6553,687.8125 Q2096.6553,689.9063 2097.3428,690.9844 Q2098.0303,692.0469 2099.374,692.0469 Q2099.999,692.0469 2100.5928,691.7813 Q2101.1865,691.5 2101.8115,690.9219 L2101.8115,693.6406 Z " fill="#000000"/><text fill="#000000" font-family="sans-serif" font-size="14" lengthAdjust="spacing" textLength="46.1084" x="2119.3428" y="692.8467">Shiftry</text><line style="stroke:#181818;stroke-width:0.5;" x1="2005.5" x2="2246.7939" y1="704" y2="704"/><line style="stroke:#181818;stroke-width:0.5;" x1="2005.5" x2="2246.7939" y1="712" y2="712"/><ellipse cx="2015.5" cy="725.6484" fill="#84BE84" rx="3" ry="3" style="stroke:#038048;stroke-width:1;"/><text fill="#000000" font-family="sans-serif" font-size="14" lengthAdjust="spacing" textLength="217.2939" x="2024.5" y="728.9951">Shiftry(name: String, level: int)</text></g><!--class Spiritomb--><g id="elem_Spiritomb"><rect codeLine="22" fill="#F1F1F1" height="64.2969" id="Spiritomb" rx="2.5" ry="2.5" style="stroke:#181818;stroke-width:0.5;" width="265.0732" x="1803.5" y="424"/><ellipse cx="1897.8428" cy="440" fill="#ADD1B2" rx="11" ry="11" style="stroke:#181818;stroke-width:1;"/><path d="M1900.8115,445.6406 Q1900.2334,445.9375 1899.5928,446.0781 Q1898.9521,446.2344 1898.249,446.2344 Q1895.749,446.2344 1894.4209,444.5938 Q1893.1084,442.9375 1893.1084,439.8125 Q1893.1084,436.6875 1894.4209,435.0313 Q1895.749,433.375 1898.249,433.375 Q1898.9521,433.375 1899.5928,433.5313 Q1900.249,433.6875 1900.8115,433.9844 L1900.8115,436.7031 Q1900.1865,436.125 1899.5928,435.8594 Q1898.999,435.5781 1898.374,435.5781 Q1897.0303,435.5781 1896.3428,436.6563 Q1895.6553,437.7188 1895.6553,439.8125 Q1895.6553,441.9063 1896.3428,442.9844 Q1897.0303,444.0469 1898.374,444.0469 Q1898.999,444.0469 1899.5928,443.7813 Q1900.1865,443.5 1900.8115,442.9219 L1900.8115,445.6406 Z " fill="#000000"/><text fill="#000000" font-family="sans-serif" font-size="14" lengthAdjust="spacing" textLength="67.8877" x="1918.3428" y="444.8467">Spiritomb</text><line style="stroke:#181818;stroke-width:0.5;" x1="1804.5" x2="2067.5732" y1="456" y2="456"/><line style="stroke:#181818;stroke-width:0.5;" x1="1804.5" x2="2067.5732" y1="464" y2="464"/><ellipse cx="1814.5" cy="477.6484" fill="#84BE84" rx="3" ry="3" style="stroke:#038048;stroke-width:1;"/><text fill="#000000" font-family="sans-serif" font-size="14" lengthAdjust="spacing" textLength="239.0732" x="1823.5" y="480.9951">Spiritomb(name: String, level: int)</text></g><!--class Watchog--><g id="elem_Watchog"><rect codeLine="25" fill="#F1F1F1" height="64.2969" id="Watchog" rx="2.5" ry="2.5" style="stroke:#181818;stroke-width:0.5;" width="259.1191" x="2360.5" y="548"/><ellipse cx="2454.8428" cy="564" fill="#ADD1B2" rx="11" ry="11" style="stroke:#181818;stroke-width:1;"/><path d="M2457.8115,569.6406 Q2457.2334,569.9375 2456.5928,570.0781 Q2455.9521,570.2344 2455.249,570.2344 Q2452.749,570.2344 2451.4209,568.5938 Q2450.1084,566.9375 2450.1084,563.8125 Q2450.1084,560.6875 2451.4209,559.0313 Q2452.749,557.375 2455.249,557.375 Q2455.9521,557.375 2456.5928,557.5313 Q2457.249,557.6875 2457.8115,557.9844 L2457.8115,560.7031 Q2457.1865,560.125 2456.5928,559.8594 Q2455.999,559.5781 2455.374,559.5781 Q2454.0303,559.5781 2453.3428,560.6563 Q2452.6553,561.7188 2452.6553,563.8125 Q2452.6553,565.9063 2453.3428,566.9844 Q2454.0303,568.0469 2455.374,568.0469 Q2455.999,568.0469 2456.5928,567.7813 Q2457.1865,567.5 2457.8115,566.9219 L2457.8115,569.6406 Z " fill="#000000"/><text fill="#000000" font-family="sans-serif" font-size="14" lengthAdjust="spacing" textLength="61.9336" x="2475.3428" y="568.8467">Watchog</text><line style="stroke:#181818;stroke-width:0.5;" x1="2361.5" x2="2618.6191" y1="580" y2="580"/><line style="stroke:#181818;stroke-width:0.5;" x1="2361.5" x2="2618.6191" y1="588" y2="588"/><ellipse cx="2371.5" cy="601.6484" fill="#84BE84" rx="3" ry="3" style="stroke:#038048;stroke-width:1;"/><text fill="#000000" font-family="sans-serif" font-size="14" lengthAdjust="spacing" textLength="233.1191" x="2380.5" y="604.9951">Watchog(name: String, level: int)</text></g><!--class Facade--><g id="elem_Facade"><rect codeLine="32" fill="#F1F1F1" height="96.8906" id="Facade" rx="2.5" ry="2.5" style="stroke:#181818;stroke-width:0.5;" width="413.666" x="46" y="1059"/><ellipse cx="223.3789" cy="1075" fill="#ADD1B2" rx="11" ry="11" style="stroke:#181818;stroke-width:1;"/><path d="M226.3477,1080.6406 Q225.7695,1080.9375 225.1289,1081.0781 Q224.4883,1081.2344 223.7852,1081.2344 Q221.2852,1081.2344 219.957,1079.5938 Q218.6445,1077.9375 218.6445,1074.8125 Q218.6445,1071.6875 219.957,1070.0313 Q221.2852,1068.375 223.7852,1068.375 Q224.4883,1068.375 225.1289,1068.5313 Q225.7852,1068.6875 226.3477,1068.9844 L226.3477,1071.7031 Q225.7227,1071.125 225.1289,1070.8594 Q224.5352,1070.5781 223.9102,1070.5781 Q222.5664,1070.5781 221.8789,1071.6563 Q221.1914,1072.7188 221.1914,1074.8125 Q221.1914,1076.9063 221.8789,1077.9844 Q222.5664,1079.0469 223.9102,1079.0469 Q224.5352,1079.0469 225.1289,1078.7813 Q225.7227,1078.5 226.3477,1077.9219 L226.3477,1080.6406 Z " fill="#000000"/><text fill="#000000" font-family="sans-serif" font-size="14" lengthAdjust="spacing" textLength="50.4082" x="243.8789" y="1079.8467">Facade</text><line style="stroke:#181818;stroke-width:0.5;" x1="47" x2="458.666" y1="1091" y2="1091"/><line style="stroke:#181818;stroke-width:0.5;" x1="47" x2="458.666" y1="1099" y2="1099"/><ellipse cx="57" cy="1112.6484" fill="#84BE84" rx="3" ry="3" style="stroke:#038048;stroke-width:1;"/><text fill="#000000" font-family="sans-serif" font-size="14" lengthAdjust="spacing" textLength="61.332" x="66" y="1115.9951">Facade()</text><polygon fill="#FFFF44" points="57,1123.9453,61,1127.9453,57,1131.9453,53,1127.9453" style="stroke:#B38D22;stroke-width:1;"/><text fill="#000000" font-family="sans-serif" font-size="14" lengthAdjust="spacing" textLength="387.666" x="66" y="1132.292">calcBaseDamage(att: Pokemon, def: Pokemon): double</text><polygon fill="#FFFF44" points="57,1140.2422,61,1144.2422,57,1148.2422,53,1144.2422" style="stroke:#B38D22;stroke-width:1;"/><text fill="#000000" font-family="sans-serif" font-size="14" lengthAdjust="spacing" textLength="121.5088" x="66" y="1148.5889">describe(): String</text></g><!--class FoulPlay--><g id="elem_FoulPlay"><rect codeLine="37" fill="#F1F1F1" height="96.8906" id="FoulPlay" rx="2.5" ry="2.5" style="stroke:#181818;stroke-width:0.5;" width="413.666" x="495" y="1059"/><ellipse cx="668.2944" cy="1075" fill="#ADD1B2" rx="11" ry="11" style="stroke:#181818;stroke-width:1;"/><path d="M671.2632,1080.6406 Q670.6851,1080.9375 670.0444,1081.0781 Q669.4038,1081.2344 668.7007,1081.2344 Q666.2007,1081.2344 664.8726,1079.5938 Q663.5601,1077.9375 663.5601,1074.8125 Q663.5601,1071.6875 664.8726,1070.0313 Q666.2007,1068.375 668.7007,1068.375 Q669.4038,1068.375 670.0444,1068.5313 Q670.7007,1068.6875 671.2632,1068.9844 L671.2632,1071.7031 Q670.6382,1071.125 670.0444,1070.8594 Q669.4507,1070.5781 668.8257,1070.5781 Q667.4819,1070.5781 666.7944,1071.6563 Q666.1069,1072.7188 666.1069,1074.8125 Q666.1069,1076.9063 666.7944,1077.9844 Q667.4819,1079.0469 668.8257,1079.0469 Q669.4507,1079.0469 670.0444,1078.7813 Q670.6382,1078.5 671.2632,1077.9219 L671.2632,1080.6406 Z " fill="#000000"/><text fill="#000000" font-family="sans-serif" font-size="14" lengthAdjust="spacing" textLength="58.5771" x="688.7944" y="1079.8467">FoulPlay</text><line style="stroke:#181818;stroke-width:0.5;" x1="496" x2="907.666" y1="1091" y2="1091"/><line style="stroke:#181818;stroke-width:0.5;" x1="496" x2="907.666" y1="1099" y2="1099"/><ellipse cx="506" cy="1112.6484" fill="#84BE84" rx="3" ry="3" style="stroke:#038048;stroke-width:1;"/><text fill="#000000" font-family="sans-serif" font-size="14" lengthAdjust="spacing" textLength="69.501" x="515" y="1115.9951">FoulPlay()</text><polygon fill="#FFFF44" points="506,1123.9453,510,1127.9453,506,1131.9453,502,1127.9453" style="stroke:#B38D22;stroke-width:1;"/><text fill="#000000" font-family="sans-serif" font-size="14" lengthAdjust="spacing" textLength="387.666" x="515" y="1132.292">calcBaseDamage(att: Pokemon, def: Pokemon): double</text><polygon fill="#FFFF44" points="506,1140.2422,510,1144.2422,506,1148.2422,502,1144.2422" style="stroke:#B38D22;stroke-width:1;"/><text fill="#000000" font-family="sans-serif" font-size="14" lengthAdjust="spacing" textLength="121.5088" x="515" y="1148.5889">describe(): String</text></g><!--class Pound--><g id="elem_Pound"><rect codeLine="42" fill="#F1F1F1" height="80.5938" id="Pound" rx="2.5" ry="2.5" style="stroke:#181818;stroke-width:0.5;" width="147.5088" x="944" y="1067"/><ellipse cx="991.6841" cy="1083" fill="#ADD1B2" rx="11" ry="11" style="stroke:#181818;stroke-width:1;"/><path d="M994.6528,1088.6406 Q994.0747,1088.9375 993.4341,1089.0781 Q992.7935,1089.2344 992.0903,1089.2344 Q989.5903,1089.2344 988.2622,1087.5938 Q986.9497,1085.9375 986.9497,1082.8125 Q986.9497,1079.6875 988.2622,1078.0313 Q989.5903,1076.375 992.0903,1076.375 Q992.7935,1076.375 993.4341,1076.5313 Q994.0903,1076.6875 994.6528,1076.9844 L994.6528,1079.7031 Q994.0278,1079.125 993.4341,1078.8594 Q992.8403,1078.5781 992.2153,1078.5781 Q990.8716,1078.5781 990.1841,1079.6563 Q989.4966,1080.7188 989.4966,1082.8125 Q989.4966,1084.9063 990.1841,1085.9844 Q990.8716,1087.0469 992.2153,1087.0469 Q992.8403,1087.0469 993.4341,1086.7813 Q994.0278,1086.5 994.6528,1085.9219 L994.6528,1088.6406 Z " fill="#000000"/><text fill="#000000" font-family="sans-serif" font-size="14" lengthAdjust="spacing" textLength="43.6406" x="1012.1841" y="1087.8467">Pound</text><line style="stroke:#181818;stroke-width:0.5;" x1="945" x2="1090.5088" y1="1099" y2="1099"/><line style="stroke:#181818;stroke-width:0.5;" x1="945" x2="1090.5088" y1="1107" y2="1107"/><ellipse cx="955" cy="1120.6484" fill="#84BE84" rx="3" ry="3" style="stroke:#038048;stroke-width:1;"/><text fill="#000000" font-family="sans-serif" font-size="14" lengthAdjust="spacing" textLength="54.5645" x="964" y="1123.9951">Pound()</text><polygon fill="#FFFF44" points="955,1131.9453,959,1135.9453,955,1139.9453,951,1135.9453" style="stroke:#B38D22;stroke-width:1;"/><text fill="#000000" font-family="sans-serif" font-size="14" lengthAdjust="spacing" textLength="121.5088" x="964" y="1140.292">describe(): String</text></g><!--class FocusBlast--><g id="elem_FocusBlast"><rect codeLine="48" fill="#F1F1F1" height="96.8906" id="FocusBlast" rx="2.5" ry="2.5" style="stroke:#181818;stroke-width:0.5;" width="273.6934" x="3019" y="1059"/><ellipse cx="3113.9272" cy="1075" fill="#ADD1B2" rx="11" ry="11" style="stroke:#181818;stroke-width:1;"/><path d="M3116.896,1080.6406 Q3116.3179,1080.9375 3115.6772,1081.0781 Q3115.0366,1081.2344 3114.3335,1081.2344 Q3111.8335,1081.2344 3110.5054,1079.5938 Q3109.1929,1077.9375 3109.1929,1074.8125 Q3109.1929,1071.6875 3110.5054,1070.0313 Q3111.8335,1068.375 3114.3335,1068.375 Q3115.0366,1068.375 3115.6772,1068.5313 Q3116.3335,1068.6875 3116.896,1068.9844 L3116.896,1071.7031 Q3116.271,1071.125 3115.6772,1070.8594 Q3115.0835,1070.5781 3114.4585,1070.5781 Q3113.1147,1070.5781 3112.4272,1071.6563 Q3111.7397,1072.7188 3111.7397,1074.8125 Q3111.7397,1076.9063 3112.4272,1077.9844 Q3113.1147,1079.0469 3114.4585,1079.0469 Q3115.0835,1079.0469 3115.6772,1078.7813 Q3116.271,1078.5 3116.896,1077.9219 L3116.896,1080.6406 Z " fill="#000000"/><text fill="#000000" font-family="sans-serif" font-size="14" lengthAdjust="spacing" textLength="75.3389" x="3134.4272" y="1079.8467">FocusBlast</text><line style="stroke:#181818;stroke-width:0.5;" x1="3020" x2="3291.6934" y1="1091" y2="1091"/><line style="stroke:#181818;stroke-width:0.5;" x1="3020" x2="3291.6934" y1="1099" y2="1099"/><ellipse cx="3030" cy="1112.6484" fill="#84BE84" rx="3" ry="3" style="stroke:#038048;stroke-width:1;"/><text fill="#000000" font-family="sans-serif" font-size="14" lengthAdjust="spacing" textLength="86.2627" x="3039" y="1115.9951">FocusBlast()</text><polygon fill="#FFFF44" points="3030,1123.9453,3034,1127.9453,3030,1131.9453,3026,1127.9453" style="stroke:#B38D22;stroke-width:1;"/><text fill="#000000" font-family="sans-serif" font-size="14" lengthAdjust="spacing" textLength="247.6934" x="3039" y="1132.292">applyOppEffects(p: Pokemon): void</text><polygon fill="#FFFF44" points="3030,1140.2422,3034,1144.2422,3030,1148.2422,3026,1144.2422" style="stroke:#B38D22;stroke-width:1;"/><text fill="#000000" font-family="sans-serif" font-size="14" lengthAdjust="spacing" textLength="121.5088" x="3039" y="1148.5889">describe(): String</text></g><!--class ShadowBall--><g id="elem_ShadowBall"><rect codeLine="53" fill="#F1F1F1" height="96.8906" id="ShadowBall" rx="2.5" ry="2.5" style="stroke:#181818;stroke-width:0.5;" width="273.6934" x="2710" y="1059"/><ellipse cx="2801.9946" cy="1075" fill="#ADD1B2" rx="11" ry="11" style="stroke:#181818;stroke-width:1;"/><path d="M2804.9634,1080.6406 Q2804.3853,1080.9375 2803.7446,1081.0781 Q2803.104,1081.2344 2802.4009,1081.2344 Q2799.9009,1081.2344 2798.5728,1079.5938 Q2797.2603,1077.9375 2797.2603,1074.8125 Q2797.2603,1071.6875 2798.5728,1070.0313 Q2799.9009,1068.375 2802.4009,1068.375 Q2803.104,1068.375 2803.7446,1068.5313 Q2804.4009,1068.6875 2804.9634,1068.9844 L2804.9634,1071.7031 Q2804.3384,1071.125 2803.7446,1070.8594 Q2803.1509,1070.5781 2802.5259,1070.5781 Q2801.1821,1070.5781 2800.4946,1071.6563 Q2799.8071,1072.7188 2799.8071,1074.8125 Q2799.8071,1076.9063 2800.4946,1077.9844 Q2801.1821,1079.0469 2802.5259,1079.0469 Q2803.1509,1079.0469 2803.7446,1078.7813 Q2804.3384,1078.5 2804.9634,1077.9219 L2804.9634,1080.6406 Z " fill="#000000"/><text fill="#000000" font-family="sans-serif" font-size="14" lengthAdjust="spacing" textLength="81.2041" x="2822.4946" y="1079.8467">ShadowBall</text><line style="stroke:#181818;stroke-width:0.5;" x1="2711" x2="2982.6934" y1="1091" y2="1091"/><line style="stroke:#181818;stroke-width:0.5;" x1="2711" x2="2982.6934" y1="1099" y2="1099"/><ellipse cx="2721" cy="1112.6484" fill="#84BE84" rx="3" ry="3" style="stroke:#038048;stroke-width:1;"/><text fill="#000000" font-family="sans-serif" font-size="14" lengthAdjust="spacing" textLength="92.1279" x="2730" y="1115.9951">ShadowBall()</text><polygon fill="#FFFF44" points="2721,1123.9453,2725,1127.9453,2721,1131.9453,2717,1127.9453" style="stroke:#B38D22;stroke-width:1;"/><text fill="#000000" font-family="sans-serif" font-size="14" lengthAdjust="spacing" textLength="247.6934" x="2730" y="1132.292">applyOppEffects(p: Pokemon): void</text><polygon fill="#FFFF44" points="2721,1140.2422,2725,1144.2422,2721,1148.2422,2717,1144.2422" style="stroke:#B38D22;stroke-width:1;"/><text fill="#000000" font-family="sans-serif" font-size="14" lengthAdjust="spacing" textLength="121.5088" x="2730" y="1148.5889">describe(): String</text></g><!--class Confide--><g id="elem_Confide"><rect codeLine="60" fill="#F1F1F1" height="96.8906" id="Confide" rx="2.5" ry="2.5" style="stroke:#181818;stroke-width:0.5;" width="273.6934" x="2380" y="1059"/><ellipse cx="2485.8306" cy="1075" fill="#ADD1B2" rx="11" ry="11" style="stroke:#181818;stroke-width:1;"/><path d="M2488.7993,1080.6406 Q2488.2212,1080.9375 2487.5806,1081.0781 Q2486.9399,1081.2344 2486.2368,1081.2344 Q2483.7368,1081.2344 2482.4087,1079.5938 Q2481.0962,1077.9375 2481.0962,1074.8125 Q2481.0962,1071.6875 2482.4087,1070.0313 Q2483.7368,1068.375 2486.2368,1068.375 Q2486.9399,1068.375 2487.5806,1068.5313 Q2488.2368,1068.6875 2488.7993,1068.9844 L2488.7993,1071.7031 Q2488.1743,1071.125 2487.5806,1070.8594 Q2486.9868,1070.5781 2486.3618,1070.5781 Q2485.0181,1070.5781 2484.3306,1071.6563 Q2483.6431,1072.7188 2483.6431,1074.8125 Q2483.6431,1076.9063 2484.3306,1077.9844 Q2485.0181,1079.0469 2486.3618,1079.0469 Q2486.9868,1079.0469 2487.5806,1078.7813 Q2488.1743,1078.5 2488.7993,1077.9219 L2488.7993,1080.6406 Z " fill="#000000"/><text fill="#000000" font-family="sans-serif" font-size="14" lengthAdjust="spacing" textLength="53.5322" x="2506.3306" y="1079.8467">Confide</text><line style="stroke:#181818;stroke-width:0.5;" x1="2381" x2="2652.6934" y1="1091" y2="1091"/><line style="stroke:#181818;stroke-width:0.5;" x1="2381" x2="2652.6934" y1="1099" y2="1099"/><ellipse cx="2391" cy="1112.6484" fill="#84BE84" rx="3" ry="3" style="stroke:#038048;stroke-width:1;"/><text fill="#000000" font-family="sans-serif" font-size="14" lengthAdjust="spacing" textLength="64.4561" x="2400" y="1115.9951">Confide()</text><polygon fill="#FFFF44" points="2391,1123.9453,2395,1127.9453,2391,1131.9453,2387,1127.9453" style="stroke:#B38D22;stroke-width:1;"/><text fill="#000000" font-family="sans-serif" font-size="14" lengthAdjust="spacing" textLength="247.6934" x="2400" y="1132.292">applyOppEffects(p: Pokemon): void</text><polygon fill="#FFFF44" points="2391,1140.2422,2395,1144.2422,2391,1148.2422,2387,1144.2422" style="stroke:#B38D22;stroke-width:1;"/><text fill="#000000" font-family="sans-serif" font-size="14" lengthAdjust="spacing" textLength="121.5088" x="2400" y="1148.5889">describe(): String</text></g><!--class DoubleTeam--><g id="elem_DoubleTeam"><rect codeLine="65" fill="#F1F1F1" height="96.8906" id="DoubleTeam" rx="2.5" ry="2.5" style="stroke:#181818;stroke-width:0.5;" width="271.2188" x="1457.5" y="1059"/><ellipse cx="1544.3643" cy="1075" fill="#ADD1B2" rx="11" ry="11" style="stroke:#181818;stroke-width:1;"/><path d="M1547.333,1080.6406 Q1546.7549,1080.9375 1546.1143,1081.0781 Q1545.4736,1081.2344 1544.7705,1081.2344 Q1542.2705,1081.2344 1540.9424,1079.5938 Q1539.6299,1077.9375 1539.6299,1074.8125 Q1539.6299,1071.6875 1540.9424,1070.0313 Q1542.2705,1068.375 1544.7705,1068.375 Q1545.4736,1068.375 1546.1143,1068.5313 Q1546.7705,1068.6875 1547.333,1068.9844 L1547.333,1071.7031 Q1546.708,1071.125 1546.1143,1070.8594 Q1545.5205,1070.5781 1544.8955,1070.5781 Q1543.5518,1070.5781 1542.8643,1071.6563 Q1542.1768,1072.7188 1542.1768,1074.8125 Q1542.1768,1076.9063 1542.8643,1077.9844 Q1543.5518,1079.0469 1544.8955,1079.0469 Q1545.5205,1079.0469 1546.1143,1078.7813 Q1546.708,1078.5 1547.333,1077.9219 L1547.333,1080.6406 Z " fill="#000000"/><text fill="#000000" font-family="sans-serif" font-size="14" lengthAdjust="spacing" textLength="88.9902" x="1564.8643" y="1079.8467">DoubleTeam</text><line style="stroke:#181818;stroke-width:0.5;" x1="1458.5" x2="1727.7188" y1="1091" y2="1091"/><line style="stroke:#181818;stroke-width:0.5;" x1="1458.5" x2="1727.7188" y1="1099" y2="1099"/><ellipse cx="1468.5" cy="1112.6484" fill="#84BE84" rx="3" ry="3" style="stroke:#038048;stroke-width:1;"/><text fill="#000000" font-family="sans-serif" font-size="14" lengthAdjust="spacing" textLength="99.9141" x="1477.5" y="1115.9951">DoubleTeam()</text><polygon fill="#FFFF44" points="1468.5,1123.9453,1472.5,1127.9453,1468.5,1131.9453,1464.5,1127.9453" style="stroke:#B38D22;stroke-width:1;"/><text fill="#000000" font-family="sans-serif" font-size="14" lengthAdjust="spacing" textLength="245.2188" x="1477.5" y="1132.292">applySelfEffects(p: Pokemon): void</text><polygon fill="#FFFF44" points="1468.5,1140.2422,1472.5,1144.2422,1468.5,1148.2422,1464.5,1144.2422" style="stroke:#B38D22;stroke-width:1;"/><text fill="#000000" font-family="sans-serif" font-size="14" lengthAdjust="spacing" textLength="121.5088" x="1477.5" y="1148.5889">describe(): String</text></g><!--class NastyPlot--><g id="elem_NastyPlot"><rect codeLine="70" fill="#F1F1F1" height="96.8906" id="NastyPlot" rx="2.5" ry="2.5" style="stroke:#181818;stroke-width:0.5;" width="271.2188" x="2073.5" y="1059"/><ellipse cx="2171.606" cy="1075" fill="#ADD1B2" rx="11" ry="11" style="stroke:#181818;stroke-width:1;"/><path d="M2174.5747,1080.6406 Q2173.9966,1080.9375 2173.356,1081.0781 Q2172.7153,1081.2344 2172.0122,1081.2344 Q2169.5122,1081.2344 2168.1841,1079.5938 Q2166.8716,1077.9375 2166.8716,1074.8125 Q2166.8716,1071.6875 2168.1841,1070.0313 Q2169.5122,1068.375 2172.0122,1068.375 Q2172.7153,1068.375 2173.356,1068.5313 Q2174.0122,1068.6875 2174.5747,1068.9844 L2174.5747,1071.7031 Q2173.9497,1071.125 2173.356,1070.8594 Q2172.7622,1070.5781 2172.1372,1070.5781 Q2170.7935,1070.5781 2170.106,1071.6563 Q2169.4185,1072.7188 2169.4185,1074.8125 Q2169.4185,1076.9063 2170.106,1077.9844 Q2170.7935,1079.0469 2172.1372,1079.0469 Q2172.7622,1079.0469 2173.356,1078.7813 Q2173.9497,1078.5 2174.5747,1077.9219 L2174.5747,1080.6406 Z " fill="#000000"/><text fill="#000000" font-family="sans-serif" font-size="14" lengthAdjust="spacing" textLength="66.5068" x="2192.106" y="1079.8467">NastyPlot</text><line style="stroke:#181818;stroke-width:0.5;" x1="2074.5" x2="2343.7188" y1="1091" y2="1091"/><line style="stroke:#181818;stroke-width:0.5;" x1="2074.5" x2="2343.7188" y1="1099" y2="1099"/><ellipse cx="2084.5" cy="1112.6484" fill="#84BE84" rx="3" ry="3" style="stroke:#038048;stroke-width:1;"/><text fill="#000000" font-family="sans-serif" font-size="14" lengthAdjust="spacing" textLength="77.4307" x="2093.5" y="1115.9951">NastyPlot()</text><polygon fill="#FFFF44" points="2084.5,1123.9453,2088.5,1127.9453,2084.5,1131.9453,2080.5,1127.9453" style="stroke:#B38D22;stroke-width:1;"/><text fill="#000000" font-family="sans-serif" font-size="14" lengthAdjust="spacing" textLength="245.2188" x="2093.5" y="1132.292">applySelfEffects(p: Pokemon): void</text><polygon fill="#FFFF44" points="2084.5,1140.2422,2088.5,1144.2422,2084.5,1148.2422,2080.5,1144.2422" style="stroke:#B38D22;stroke-width:1;"/><text fill="#000000" font-family="sans-serif" font-size="14" lengthAdjust="spacing" textLength="121.5088" x="2093.5" y="1148.5889">describe(): String</text></g><!--class Smokescreen--><g id="elem_Smokescreen"><rect codeLine="75" fill="#F1F1F1" height="96.8906" id="Smokescreen" rx="2.5" ry="2.5" style="stroke:#181818;stroke-width:0.5;" width="273.6934" x="1148" y="1059"/><ellipse cx="1233.2681" cy="1075" fill="#ADD1B2" rx="11" ry="11" style="stroke:#181818;stroke-width:1;"/><path d="M1236.2368,1080.6406 Q1235.6587,1080.9375 1235.0181,1081.0781 Q1234.3774,1081.2344 1233.6743,1081.2344 Q1231.1743,1081.2344 1229.8462,1079.5938 Q1228.5337,1077.9375 1228.5337,1074.8125 Q1228.5337,1071.6875 1229.8462,1070.0313 Q1231.1743,1068.375 1233.6743,1068.375 Q1234.3774,1068.375 1235.0181,1068.5313 Q1235.6743,1068.6875 1236.2368,1068.9844 L1236.2368,1071.7031 Q1235.6118,1071.125 1235.0181,1070.8594 Q1234.4243,1070.5781 1233.7993,1070.5781 Q1232.4556,1070.5781 1231.7681,1071.6563 Q1231.0806,1072.7188 1231.0806,1074.8125 Q1231.0806,1076.9063 1231.7681,1077.9844 Q1232.4556,1079.0469 1233.7993,1079.0469 Q1234.4243,1079.0469 1235.0181,1078.7813 Q1235.6118,1078.5 1236.2368,1077.9219 L1236.2368,1080.6406 Z " fill="#000000"/><text fill="#000000" font-family="sans-serif" font-size="14" lengthAdjust="spacing" textLength="94.6572" x="1253.7681" y="1079.8467">Smokescreen</text><line style="stroke:#181818;stroke-width:0.5;" x1="1149" x2="1420.6934" y1="1091" y2="1091"/><line style="stroke:#181818;stroke-width:0.5;" x1="1149" x2="1420.6934" y1="1099" y2="1099"/><ellipse cx="1159" cy="1112.6484" fill="#84BE84" rx="3" ry="3" style="stroke:#038048;stroke-width:1;"/><text fill="#000000" font-family="sans-serif" font-size="14" lengthAdjust="spacing" textLength="54.5645" x="1168" y="1115.9951">Pound()</text><polygon fill="#FFFF44" points="1159,1123.9453,1163,1127.9453,1159,1131.9453,1155,1127.9453" style="stroke:#B38D22;stroke-width:1;"/><text fill="#000000" font-family="sans-serif" font-size="14" lengthAdjust="spacing" textLength="247.6934" x="1168" y="1132.292">applyOppEffects(p: Pokemon): void</text><polygon fill="#FFFF44" points="1159,1140.2422,1163,1144.2422,1159,1148.2422,1155,1144.2422" style="stroke:#B38D22;stroke-width:1;"/><text fill="#000000" font-family="sans-serif" font-size="14" lengthAdjust="spacing" textLength="121.5088" x="1168" y="1148.5889">describe(): String</text></g><!--class Swagger--><g id="elem_Swagger"><rect codeLine="80" fill="#F1F1F1" height="96.8906" id="Swagger" rx="2.5" ry="2.5" style="stroke:#181818;stroke-width:0.5;" width="273.6934" x="1764" y="1059"/><ellipse cx="1866.0674" cy="1075" fill="#ADD1B2" rx="11" ry="11" style="stroke:#181818;stroke-width:1;"/><path d="M1869.0361,1080.6406 Q1868.458,1080.9375 1867.8174,1081.0781 Q1867.1768,1081.2344 1866.4736,1081.2344 Q1863.9736,1081.2344 1862.6455,1079.5938 Q1861.333,1077.9375 1861.333,1074.8125 Q1861.333,1071.6875 1862.6455,1070.0313 Q1863.9736,1068.375 1866.4736,1068.375 Q1867.1768,1068.375 1867.8174,1068.5313 Q1868.4736,1068.6875 1869.0361,1068.9844 L1869.0361,1071.7031 Q1868.4111,1071.125 1867.8174,1070.8594 Q1867.2236,1070.5781 1866.5986,1070.5781 Q1865.2549,1070.5781 1864.5674,1071.6563 Q1863.8799,1072.7188 1863.8799,1074.8125 Q1863.8799,1076.9063 1864.5674,1077.9844 Q1865.2549,1079.0469 1866.5986,1079.0469 Q1867.2236,1079.0469 1867.8174,1078.7813 Q1868.4111,1078.5 1869.0361,1077.9219 L1869.0361,1080.6406 Z " fill="#000000"/><text fill="#000000" font-family="sans-serif" font-size="14" lengthAdjust="spacing" textLength="61.0586" x="1886.5674" y="1079.8467">Swagger</text><line style="stroke:#181818;stroke-width:0.5;" x1="1765" x2="2036.6934" y1="1091" y2="1091"/><line style="stroke:#181818;stroke-width:0.5;" x1="1765" x2="2036.6934" y1="1099" y2="1099"/><ellipse cx="1775" cy="1112.6484" fill="#84BE84" rx="3" ry="3" style="stroke:#038048;stroke-width:1;"/><text fill="#000000" font-family="sans-serif" font-size="14" lengthAdjust="spacing" textLength="71.9824" x="1784" y="1115.9951">Swagger()</text><polygon fill="#FFFF44" points="1775,1123.9453,1779,1127.9453,1775,1131.9453,1771,1127.9453" style="stroke:#B38D22;stroke-width:1;"/><text fill="#000000" font-family="sans-serif" font-size="14" lengthAdjust="spacing" textLength="247.6934" x="1784" y="1132.292">applyOppEffects(p: Pokemon): void</text><polygon fill="#FFFF44" points="1775,1140.2422,1779,1144.2422,1775,1148.2422,1771,1144.2422" style="stroke:#B38D22;stroke-width:1;"/><text fill="#000000" font-family="sans-serif" font-size="14" lengthAdjust="spacing" textLength="121.5088" x="1784" y="1148.5889">describe(): String</text></g><polygon fill="#F1F1F1" points="584,857,596,869,584,881,572,869,584,857" style="stroke:#181818;stroke-width:0.5;"/><polygon fill="#F1F1F1" points="2679,941,2691,953,2679,965,2667,953,2679,941" style="stroke:#181818;stroke-width:0.5;"/><polygon fill="#F1F1F1" points="1837,857,1849,869,1837,881,1825,869,1837,857" style="stroke:#181818;stroke-width:0.5;"/><polygon fill="#F1F1F1" points="2082,247,2094,259,2082,271,2070,259,2082,247" style="stroke:#181818;stroke-width:0.5;"/><!--reverse link Move to SpecialMove--><g id="link_Move_SpecialMove"><path codeLine="92" d="M1586.13,151 C1616.22,151 1636.75,151 1636.75,151 C1636.75,151 1636.75,202.92 1636.75,234.76 " fill="none" id="Move-backto-SpecialMove" style="stroke:#181818;stroke-width:1;"/><polygon fill="none" points="1568.13,151,1586.13,157,1586.13,145,1568.13,151" style="stroke:#181818;stroke-width:1;"/></g><!--reverse link Move to PhysicalMove--><g id="link_Move_PhysicalMove"><path codeLine="93" d="M1479.83,151 C1434.1,151 1378,151 1378,151 C1378,151 1378,202.92 1378,234.76 " fill="none" id="Move-backto-PhysicalMove" style="stroke:#181818;stroke-width:1;"/><polygon fill="none" points="1497.83,151,1479.83,145,1479.83,157,1497.83,151" style="stroke:#181818;stroke-width:1;"/></g><!--reverse link Move to StatusMove--><g id="link_Move_StatusMove"><path codeLine="94" d="M1533,193.24 C1533,211.02 1533,217.08 1533,234.84 " fill="none" id="Move-backto-StatusMove" style="stroke:#181818;stroke-width:1;"/><polygon fill="none" points="1533,175.24,1527,193.24,1539,193.24,1533,175.24" style="stroke:#181818;stroke-width:1;"/></g><!--link connect1 to Facade--><g id="link_connect1_Facade"><path codeLine="97" d="M571.71,869 C519.92,869 322,869 322,869 C322,869 322,989.21 322,1058.95 " fill="none" id="connect1-Facade" style="stroke:#0000FF;stroke-width:1;"/></g><!--link connect1 to FoulPlay--><g id="link_connect1_FoulPlay"><path codeLine="98" d="M584,881.16 C584,913.43 584,1002.65 584,1058.96 " fill="none" id="connect1-FoulPlay" style="stroke:#0000FF;stroke-width:1;"/></g><!--link connect1 to Pound--><g id="link_connect1_Pound"><path codeLine="99" d="M593.32,872 C654.25,872 993.33,872 993.33,872 C993.33,872 993.33,999.34 993.33,1066.75 " fill="none" id="connect1-Pound" style="stroke:#0000FF;stroke-width:1;"/></g><!--reverse link PhysicalMove to connect1--><g id="link_PhysicalMove_connect1"><path codeLine="100" d="M1296.7,259 C1108.59,259 584,259 584,259 C584,259 584,770.84 584,856.82 " fill="none" id="PhysicalMove-backto-connect1" style="stroke:#181818;stroke-width:2;"/><polygon fill="none" points="1314.7,259,1296.7,253,1296.7,265,1314.7,259" style="stroke:#181818;stroke-width:2;"/></g><!--link connect2 to FocusBlast--><g id="link_connect2_FocusBlast"><path codeLine="102" d="M2691.44,953 C2762.17,953 3110.33,953 3110.33,953 C3110.33,953 3110.33,1013.35 3110.33,1058.62 " fill="none" id="connect2-FocusBlast" style="stroke:#FF0000;stroke-width:1;"/></g><!--link connect2 to ShadowBall--><g id="link_connect2_ShadowBall"><path codeLine="103" d="M2679,965.16 C2679,1001.7 2679,1108 2679,1108 C2679,1108 2691.56,1108 2709.81,1108 " fill="none" id="connect2-ShadowBall" style="stroke:#FF0000;stroke-width:1;"/></g><!--reverse link SpecialMove to connect2--><g id="link_SpecialMove_connect2"><path codeLine="104" d="M1736.75,301.29 C1736.75,424.13 1736.75,953 1736.75,953 C1736.75,953 2556.3,953 2666.74,953 " fill="none" id="SpecialMove-backto-connect2" style="stroke:#181818;stroke-width:2;"/><polygon fill="none" points="1736.75,283.29,1730.75,301.29,1742.75,301.29,1736.75,283.29" style="stroke:#181818;stroke-width:2;"/></g><!--link connect3 to Confide--><g id="link_connect3_Confide"><path codeLine="106" d="M1845.38,865 C1922.1,865 2499.75,865 2499.75,865 C2499.75,865 2499.75,987.9 2499.75,1058.72 " fill="none" id="connect3-Confide" style="stroke:#008000;stroke-width:1;"/></g><!--link connect3 to DoubleTeam--><g id="link_connect3_DoubleTeam"><path codeLine="107" d="M1832.87,877 C1809.43,877 1694,877 1694,877 C1694,877 1694,991.27 1694,1058.9 " fill="none" id="connect3-DoubleTeam" style="stroke:#008000;stroke-width:1;"/></g><!--link connect3 to NastyPlot--><g id="link_connect3_NastyPlot"><path codeLine="108" d="M1845.18,873 C1892.75,873 2131.5,873 2131.5,873 C2131.5,873 2131.5,990.22 2131.5,1058.91 " fill="none" id="connect3-NastyPlot" style="stroke:#008000;stroke-width:1;"/></g><!--link connect3 to Smokescreen--><g id="link_connect3_Smokescreen"><path codeLine="109" d="M1826.74,867 C1759.66,867 1386.33,867 1386.33,867 C1386.33,867 1386.33,988.56 1386.33,1058.83 " fill="none" id="connect3-Smokescreen" style="stroke:#008000;stroke-width:1;"/></g><!--link connect3 to Swagger--><g id="link_connect3_Swagger"><path codeLine="110" d="M1837,881.16 C1837,913.43 1837,1002.65 1837,1058.96 " fill="none" id="connect3-Swagger" style="stroke:#008000;stroke-width:1;"/></g><!--reverse link StatusMove to connect3--><g id="link_StatusMove_connect3"><path codeLine="112" d="M1533,301.01 C1533,413.16 1533,862 1533,862 C1533,862 1791.36,862 1831.72,862 " fill="none" id="StatusMove-backto-connect3" style="stroke:#181818;stroke-width:2;"/><polygon fill="none" points="1533,283.01,1527,301.01,1539,301.01,1533,283.01" style="stroke:#181818;stroke-width:2;"/></g><!--reverse link Spiritomb to Smokescreen--><g id="link_Spiritomb_Smokescreen"><path codeLine="114" d="M1791.18,472 C1618.48,472 1350.67,472 1350.67,472 C1350.67,472 1350.67,910.39 1350.67,1058.95 " fill="none" id="Spiritomb-backto-Smokescreen" style="stroke:#181818;stroke-width:1;"/><polygon fill="none" points="1803.18,472,1797.18,468,1791.18,472,1797.18,476,1803.18,472" style="stroke:#181818;stroke-width:1;"/></g><!--reverse link Spiritomb to Facade--><g id="link_Spiritomb_Facade"><path codeLine="115" d="M1791.24,440 C1382.73,440 184,440 184,440 C184,440 184,905.35 184,1058.96 " fill="none" id="Spiritomb-backto-Facade" style="stroke:#181818;stroke-width:1;"/><polygon fill="none" points="1803.24,440,1797.24,436,1791.24,440,1797.24,444,1803.24,440" style="stroke:#181818;stroke-width:1;"/></g><!--reverse link Spiritomb to FoulPlay--><g id="link_Spiritomb_FoulPlay"><path codeLine="116" d="M1791.4,456 C1482.39,456 752.5,456 752.5,456 C752.5,456 752.5,907.55 752.5,1058.8 " fill="none" id="Spiritomb-backto-FoulPlay" style="stroke:#181818;stroke-width:1;"/><polygon fill="none" points="1803.4,456,1797.4,452,1791.4,456,1797.4,460,1803.4,456" style="stroke:#181818;stroke-width:1;"/></g><!--reverse link Spiritomb to ShadowBall--><g id="link_Spiritomb_ShadowBall"><path codeLine="117" d="M2036.5,500.4 C2036.5,553.69 2036.5,642 2036.5,642 C2036.5,642 2778.5,642 2778.5,642 C2778.5,642 2778.5,939.05 2778.5,1058.56 " fill="none" id="Spiritomb-backto-ShadowBall" style="stroke:#181818;stroke-width:1;"/><polygon fill="none" points="2036.5,488.4,2032.5,494.4,2036.5,500.4,2040.5,494.4,2036.5,488.4" style="stroke:#181818;stroke-width:1;"/></g><!--reverse link Patrat to Confide--><g id="link_Patrat_Confide"><path codeLine="118" d="M2625.25,500.31 C2625.25,606.35 2625.25,932.2 2625.25,1058.9 " fill="none" id="Patrat-backto-Confide" style="stroke:#181818;stroke-width:1;"/><polygon fill="none" points="2625.25,488.31,2621.25,494.31,2625.25,500.31,2629.25,494.31,2625.25,488.31" style="stroke:#181818;stroke-width:1;"/></g><!--reverse link Patrat to ShadowBall--><g id="link_Patrat_ShadowBall"><path codeLine="119" d="M2643.09,456 C2763.05,456 2915.5,456 2915.5,456 C2915.5,456 2915.5,907.55 2915.5,1058.8 " fill="none" id="Patrat-backto-ShadowBall" style="stroke:#181818;stroke-width:1;"/><polygon fill="none" points="2631.09,456,2637.09,460,2643.09,456,2637.09,452,2631.09,456" style="stroke:#181818;stroke-width:1;"/></g><!--reverse link Patrat to Swagger--><g id="link_Patrat_Swagger"><path codeLine="120" d="M2463.17,500.21 C2463.17,521.31 2463.17,533 2463.17,533 C2463.17,533 1926.75,533 1926.75,533 C1926.75,533 1926.75,919.59 1926.75,1058.52 " fill="none" id="Patrat-backto-Swagger" style="stroke:#181818;stroke-width:1;"/><polygon fill="none" points="2463.17,488.21,2459.17,494.21,2463.17,500.21,2467.17,494.21,2463.17,488.21" style="stroke:#181818;stroke-width:1;"/></g><!--reverse link Watchog to FocusBlast--><g id="link_Watchog_FocusBlast"><path codeLine="121" d="M2631.7,580 C2836.97,580 3201.67,580 3201.67,580 C3201.67,580 3201.67,928.23 3201.67,1058.82 " fill="none" id="Watchog-backto-FocusBlast" style="stroke:#181818;stroke-width:1;"/><polygon fill="none" points="2619.7,580,2625.7,584,2631.7,580,2625.7,576,2619.7,580" style="stroke:#181818;stroke-width:1;"/></g><!--reverse link Seedot to DoubleTeam--><g id="link_Seedot_DoubleTeam"><path codeLine="122" d="M2177.67,500.13 C2177.67,508.39 2177.67,503 2177.67,503 C2177.67,503 1659.5,503 1659.5,503 C1659.5,503 1659.5,915.12 1659.5,1058.8 " fill="none" id="Seedot-backto-DoubleTeam" style="stroke:#181818;stroke-width:1;"/><polygon fill="none" points="2177.67,488.13,2173.67,494.13,2177.67,500.13,2181.67,494.13,2177.67,488.13" style="stroke:#181818;stroke-width:1;"/></g><!--reverse link Seedot to ShadowBall--><g id="link_Seedot_ShadowBall"><path codeLine="123" d="M2334.75,500.09 C2334.75,515.22 2334.75,518 2334.75,518 C2334.75,518 2847,518 2847,518 C2847,518 2847,917.52 2847,1058.76 " fill="none" id="Seedot-backto-ShadowBall" style="stroke:#181818;stroke-width:1;"/><polygon fill="none" points="2334.75,488.09,2330.75,494.09,2334.75,500.09,2338.75,494.09,2334.75,488.09" style="stroke:#181818;stroke-width:1;"/></g><!--reverse link Nuzleaf to Pound--><g id="link_Nuzleaf_Pound"><path codeLine="124" d="M2062.77,580 C1763.33,580 1042.67,580 1042.67,580 C1042.67,580 1042.67,943.46 1042.67,1066.98 " fill="none" id="Nuzleaf-backto-Pound" style="stroke:#181818;stroke-width:1;"/><polygon fill="none" points="2074.77,580,2068.77,576,2062.77,580,2068.77,584,2074.77,580" style="stroke:#181818;stroke-width:1;"/></g><!--reverse link Shiftry to NastyPlot--><g id="link_Shiftry_NastyPlot"><path codeLine="125" d="M2189.5,748.34 C2189.5,818.93 2189.5,975.2 2189.5,1058.73 " fill="none" id="Shiftry-backto-NastyPlot" style="stroke:#181818;stroke-width:1;"/><polygon fill="none" points="2189.5,736.34,2185.5,742.34,2189.5,748.34,2193.5,742.34,2189.5,736.34" style="stroke:#181818;stroke-width:1;"/></g><!--link connect4 to Seedot--><g id="link_connect4_Seedot"><path codeLine="128" d="M2087.67,265.45 C2087.67,300.56 2087.67,467 2087.67,467 C2087.67,467 2093.98,467 2103.92,467 " fill="none" id="connect4-Seedot" style="stroke:#181818;stroke-width:1;"/></g><!--link Seedot to Nuzleaf--><g id="link_Seedot_Nuzleaf"><path codeLine="129" d="M2251.33,488.26 C2251.33,506.63 2251.33,511.56 2251.33,529.91 " fill="none" id="Seedot-to-Nuzleaf" style="stroke:#181818;stroke-width:1;"/><polygon fill="none" points="2251.33,547.91,2257.33,529.91,2245.33,529.91,2251.33,547.91" style="stroke:#181818;stroke-width:1;"/></g><!--link Nuzleaf to Shiftry--><g id="link_Nuzleaf_Shiftry"><path codeLine="130" d="M2161.25,612.26 C2161.25,630.63 2161.25,635.56 2161.25,653.91 " fill="none" id="Nuzleaf-to-Shiftry" style="stroke:#181818;stroke-width:1;"/><polygon fill="none" points="2161.25,671.91,2167.25,653.91,2155.25,653.91,2161.25,671.91" style="stroke:#181818;stroke-width:1;"/></g><!--link connect4 to Patrat--><g id="link_connect4_Patrat"><path codeLine="131" d="M2094.29,259 C2164.14,259 2508,259 2508,259 C2508,259 2508,368.09 2508,423.91 " fill="none" id="connect4-Patrat" style="stroke:#181818;stroke-width:1;"/></g><!--link Patrat to Watchog--><g id="link_Patrat_Watchog"><path codeLine="132" d="M2541.33,488.26 C2541.33,506.63 2541.33,511.56 2541.33,529.91 " fill="none" id="Patrat-to-Watchog" style="stroke:#181818;stroke-width:1;"/><polygon fill="none" points="2541.33,547.91,2547.33,529.91,2535.33,529.91,2541.33,547.91" style="stroke:#181818;stroke-width:1;"/></g><!--link connect4 to Spiritomb--><g id="link_connect4_Spiritomb"><path codeLine="133" d="M2081.33,270.42 C2081.33,311.02 2081.33,446 2081.33,446 C2081.33,446 2076.54,446 2068.69,446 " fill="none" id="connect4-Spiritomb" style="stroke:#181818;stroke-width:1;"/></g><!--reverse link Pokemon to connect4--><g id="link_Pokemon_connect4"><path codeLine="134" d="M1763.76,151 C1867.36,151 2082,151 2082,151 C2082,151 2082,218.24 2082,246.61 " fill="none" id="Pokemon-backto-connect4" style="stroke:#181818;stroke-width:2;"/><polygon fill="none" points="1745.76,151,1763.76,157,1763.76,145,1745.76,151" style="stroke:#181818;stroke-width:2;"/></g><!--SRC=[nLOzRzim4DtrAmXaSP38HUrCHfeXJJkrgG47w11ueAcJJPWY1P5ou3R-xwN5JoboZGHrgabyntltU7Vya6lAIrpX0Z7AGMrBGA9IAv6KcApn4b1L3sbUYA64tmdI7s5OIZGLQoW4Rn2yaAh2HA7lOWFHd5a9X6BMGQUhhQJa1JnJMDMo0NS-TccYo3ZoVVsB0SuDTE660uuBc6YMYlBb9MAm0JP1bAlpPjuk5e2rMkNyPm2PKAzmDmvlTr_HN5LRxs-6ho4eQKMLA1QUmW6l8Fc95Lc9fQEmmwC4kyINfj2LidNnrRALDMW8zXKJd450BmmmEFV86T9kv1PBkCE5fXfWfIQknovH1haVdKzG9ke5WyWv0qagkj2CJhmtxhfQHCsc36zZDHRwBtgcekPP9AOPjvGS9TkrYY3DfdjH0q5gUQj_LMlb3cn5n6N9jZ_AyakU0r5oKCQBtGYQlMsfinNEnDCjPf6uYm2UJa8dGSr1qytFPy5pscfIYxn7PkwQ1de0N4Jn0_XImWnO_eyrtEiks4wPYFl3O- -YO5Pe4ZqRWFzrGvogFP_mSWbLt9i6EMLZxf9hdM86D-vSDU6_wQluOKN9ceDMDjvF-s3dXUjukByiqVLpcaPtz32-T8_DRLt5Hud31PrSto0YEDSP-9Yu7vIcZsSBLiFS7lYn9PZiOTldrfGwEQ1lh-THkPny6is3Wg1cv6X73Mq5sJmw-NgCuVX9-dFOfA4txYYAEtRKOxFMvRw9v-vGwJU6_TrlzvkltnpjbWCJJFScIMyD3wPpd2J-GO649cn5wfXieRkegt6NA2JRlC4QU6znYUh0XntSukp3nUDHiStBp5kYT7SiKHJxcFGcqv7sZURHK9ce1QvS5QxGdhC9uIAbcf-dppVkiUhZU8CD4NEazg7gbkxdsZMtuxbCjxQFEPWEj_3L7m00]--></g></svg>